<svg xmlns="http://www.w3.org/2000/svg" xmlns:xlink="http://www.w3.org/1999/xlink" width="205.892" height="36" viewBox="0 0 205.892 36"><defs><clipPath id="a"><rect width="205.892" height="36" fill="none"/></clipPath></defs><g clip-path="url(#a)"><path d="M656.064,51.769V29.8h11.955a6.873,6.873,0,0,1,4.671,1.374,5.194,5.194,0,0,1,1.558,4.108,6.052,6.052,0,0,1-.638,2.829,4.364,4.364,0,0,1-1.595,1.984,4.609,4.609,0,0,1,2.413,1.984,6.636,6.636,0,0,1,.812,3.423,6.536,6.536,0,0,1-1.88,4.6,5.828,5.828,0,0,1-4.415,1.671Zm9.417-17.708h-3.516v4.531h3.516a4.538,4.538,0,0,0,2.537-.505,2.015,2.015,0,0,0,.688-1.738,2.008,2.008,0,0,0-.744-1.753,4.384,4.384,0,0,0-2.481-.534m-3.516,13.326h4.2a4.315,4.315,0,0,0,2.55-.536,2.259,2.259,0,0,0,.676-1.871,2.32,2.32,0,0,0-.751-1.932,4.036,4.036,0,0,0-2.476-.594h-4.2Z" transform="translate(-627.374 -22.783)" fill="#ec1c24"/><path d="M669.766,51.769V29.8h11.5q3.743,0,5.515,1.44a5.432,5.432,0,0,1,1.771,4.473,6.884,6.884,0,0,1-.83,3.417,4.855,4.855,0,0,1-2.282,2.139,5.3,5.3,0,0,1,2.161,1.508,7.753,7.753,0,0,1,.588,3.172c.008.149.016.352.024.609q.152,4.087.988,5.215h-6.1a3.083,3.083,0,0,1-.284-.788,4.187,4.187,0,0,1-.1-.92V48.575q0-3.031-.663-3.966c-.444-.625-.889-.936-2.181-.936h-4.292v8.1Zm5.816-12.6h3.477a5.366,5.366,0,0,0,2.955-.6,2,2,0,0,0,.854-1.843,2.09,2.09,0,0,0-.8-1.872,6.438,6.438,0,0,0-3.214-.534h-3.275Z" transform="translate(-618.96 -22.783)" fill="#ec1c24"/><path d="M681.943,51.769,690.257,29.8h5.633l8.292,21.971H698.14l-1.01-4.088h-7.76l-1.209,4.088Zm8.863-9.092h4.527l-2.2-6.789Z" transform="translate(-611.482 -22.783)" fill="#ec1c24"/><rect width="2.156" height="9.448" transform="translate(138.117 6.905)" fill="#231f20"/><path d="M726.368,39.177h2.018V32.853h.027l4.077,6.325h2.156V29.73h-2.018v6.338H732.6l-4.091-6.338h-2.141Z" transform="translate(-584.201 -22.825)" fill="#231f20"/><path d="M735.132,39.177h2.156v-7.7h2.938V29.73h-8.031v1.747h2.938Z" transform="translate(-580.623 -22.825)" fill="#231f20"/><path d="M737.867,39.177h7.441V37.431h-5.286V35.115h4.75V33.5h-4.75V31.476H745.2V29.73h-7.331Z" transform="translate(-577.139 -22.825)" fill="#231f20"/><path d="M743.379,39.177h2.155V35.486h2.156a2.119,2.119,0,0,1,.872.15,1.069,1.069,0,0,1,.512.468,2.327,2.327,0,0,1,.25.81c.034.253.061.518.081.789s.047.537.081.791a2.83,2.83,0,0,0,.181.683h2.156a1.516,1.516,0,0,1-.219-.489,3.679,3.679,0,0,1-.115-.605c-.026-.211-.042-.416-.05-.615s-.019-.374-.027-.526a4.773,4.773,0,0,0-.1-.71,2.619,2.619,0,0,0-.241-.654,1.782,1.782,0,0,0-.426-.525,1.676,1.676,0,0,0-.659-.321V34.7a2.335,2.335,0,0,0,1.183-.926,2.662,2.662,0,0,0,.368-1.441,2.572,2.572,0,0,0-.2-1.01,2.494,2.494,0,0,0-.576-.83,2.723,2.723,0,0,0-.9-.562,3.367,3.367,0,0,0-1.19-.2h-5.286Zm2.155-7.833H747.9a1.669,1.669,0,0,1,1.1.313,1.238,1.238,0,0,1,.381,1A1.3,1.3,0,0,1,749,33.686a1.651,1.651,0,0,1-1.1.318h-2.361Z" transform="translate(-573.755 -22.825)" fill="#231f20"/><path d="M749.52,39.177h2.018V32.853h.027l4.077,6.325H757.8V29.73H755.78v6.338h-.027l-4.091-6.338H749.52Z" transform="translate(-569.984 -22.825)" fill="#231f20"/><path d="M755.823,39.177h7.441V37.431h-5.285V35.115h4.75V33.5h-4.75V31.476h5.175V29.73h-7.331Z" transform="translate(-566.113 -22.825)" fill="#231f20"/><path d="M763.8,39.177h2.156v-7.7h2.938V29.73h-8.031v1.747H763.8Z" transform="translate(-563.021 -22.825)" fill="#231f20"/><path d="M723.859,39.177h2.155V29.73h-2.155Zm4.05,0h2.018V32.853h.028l4.077,6.324h2.156V29.73h-2.019v6.339h-.027l-4.09-6.339h-2.142Zm12.341,0h2.156v-7.7h2.938V29.73h-8.032v1.746h2.938Zm6.219,0h7.441V37.431h-5.284V35.115h4.749V33.5h-4.749V31.476H753.8V29.73h-7.331Zm8.9,0h2.155V35.486h2.156a2.119,2.119,0,0,1,.872.15,1.069,1.069,0,0,1,.512.468,2.327,2.327,0,0,1,.25.81c.034.253.061.518.079.789s.048.536.082.789a2.82,2.82,0,0,0,.181.684h2.156a1.514,1.514,0,0,1-.22-.489,3.7,3.7,0,0,1-.115-.6c-.026-.213-.042-.418-.05-.617s-.019-.374-.027-.526a4.567,4.567,0,0,0-.1-.71,2.682,2.682,0,0,0-.24-.654,1.758,1.758,0,0,0-.426-.525,1.676,1.676,0,0,0-.659-.321V34.7a2.336,2.336,0,0,0,1.183-.926,2.648,2.648,0,0,0,.368-1.441,2.571,2.571,0,0,0-.2-1.01,2.493,2.493,0,0,0-.576-.83,2.722,2.722,0,0,0-.9-.562,3.367,3.367,0,0,0-1.19-.2h-5.286Zm2.155-7.833h2.361a1.677,1.677,0,0,1,1.1.313,1.243,1.243,0,0,1,.379,1,1.307,1.307,0,0,1-.379,1.031,1.659,1.659,0,0,1-1.1.318h-2.361Zm7.757,7.833H767.3V32.853h.026l4.077,6.324h2.156V29.73h-2.019v6.339h-.028l-4.09-6.339h-2.142Zm10.172,0h7.441V37.431h-5.284V35.115h4.75V33.5h-4.75V31.476h5.175V29.73H775.45Zm11.066,0h2.155v-7.7h2.939V29.73h-8.032v1.746h2.938Z" transform="translate(-585.742 -22.825)" fill="none" stroke="#231f20" stroke-miterlimit="2.613" stroke-width="0.047"/><path d="M725.946,42.866h2.289a2.071,2.071,0,0,1,.793.134,1.084,1.084,0,0,1,.528.437,1.438,1.438,0,0,1,.192.778,1.353,1.353,0,0,1-.124.607.977.977,0,0,1-.339.383,1.417,1.417,0,0,1-.5.2,2.613,2.613,0,0,1-.594.056h-2.248Zm-2.1,4.206h4.631a5.013,5.013,0,0,0,1.015-.1,3.743,3.743,0,0,0,.92-.312,2.8,2.8,0,0,0,.749-.534,2.3,2.3,0,0,0,.505-.772,2.956,2.956,0,0,0-.011-2.092,2.148,2.148,0,0,0-.584-.818,2.535,2.535,0,0,0-.973-.505,2.355,2.355,0,0,0,.962-.788,2.077,2.077,0,0,0,.337-1.185,2.608,2.608,0,0,0-.221-1.109,1.792,1.792,0,0,0-.623-.721,2.7,2.7,0,0,0-.964-.392,5.8,5.8,0,0,0-1.246-.119h-4.5Zm2.1-7.833h1.968a3.243,3.243,0,0,1,.542.042,1.437,1.437,0,0,1,.462.163.823.823,0,0,1,.321.331,1.31,1.31,0,0,1-.048,1.194.97.97,0,0,1-.455.365,1.759,1.759,0,0,1-.66.115h-2.129Z" transform="translate(-585.751 -17.977)" fill="#231f20"/><path d="M729.052,47.074h2.129l.749-2.1h3.575l.722,2.1h2.182l-3.574-9.449H732.68Zm4.673-7.12h.026l1.206,3.467h-2.478Z" transform="translate(-582.553 -17.977)" fill="#231f20"/><path d="M735.363,47.073h1.968V40.748h.027l3.976,6.325h2.1V37.625h-1.968v6.338h-.027l-3.989-6.338h-2.088Z" transform="translate(-578.677 -17.977)" fill="#231f20"/><path d="M741.509,47.073h2.1V44.03l1.205-1.2,2.878,4.248h2.637l-4.1-5.716,3.735-3.731h-2.624l-3.735,3.917V37.625h-2.1Z" transform="translate(-574.903 -17.977)" fill="#231f20"/><path d="M725.946,42.866h2.289a2.071,2.071,0,0,1,.793.134,1.084,1.084,0,0,1,.528.437,1.438,1.438,0,0,1,.192.778,1.353,1.353,0,0,1-.124.607.977.977,0,0,1-.339.383,1.417,1.417,0,0,1-.5.2,2.613,2.613,0,0,1-.594.056h-2.248Zm-2.1,4.206h4.631a5.013,5.013,0,0,0,1.015-.1,3.743,3.743,0,0,0,.92-.312,2.8,2.8,0,0,0,.749-.534,2.3,2.3,0,0,0,.505-.772,2.749,2.749,0,0,0,.184-1.02,2.8,2.8,0,0,0-.2-1.072,2.119,2.119,0,0,0-.586-.818,2.5,2.5,0,0,0-.972-.505,2.355,2.355,0,0,0,.962-.788,2.077,2.077,0,0,0,.337-1.185,2.584,2.584,0,0,0-.221-1.109,1.792,1.792,0,0,0-.623-.721,2.7,2.7,0,0,0-.964-.392,5.8,5.8,0,0,0-1.244-.119h-4.5Zm2.1-7.833h1.968a3.243,3.243,0,0,1,.542.042,1.437,1.437,0,0,1,.462.163.834.834,0,0,1,.321.331,1.31,1.31,0,0,1-.048,1.194.97.97,0,0,1-.455.365,1.759,1.759,0,0,1-.66.115h-2.129Zm6.3,7.833h2.129l.749-2.1H738.7l.723,2.1h2.181l-3.574-9.447h-2.155Zm4.671-7.118h.028l1.206,3.467h-2.478Zm5.517,7.118H744.4V40.748h.028l3.976,6.324h2.1V37.625h-1.968v6.339h-.028l-3.988-6.339h-2.087Zm9.919,0h2.1V44.03l1.2-1.2,2.878,4.247h2.637l-4.1-5.715,3.735-3.732h-2.623l-3.735,3.917V37.625h-2.1Z" transform="translate(-585.751 -17.977)" fill="none" stroke="#231f20" stroke-miterlimit="2.613" stroke-width="0.047"/><path d="M704.9,30.857s-.476-.128-.476-.554.215-.678.825-.678h7.255s.87,0,.87.678-.261.678-.737.812-1.128,0-1.128,1.015V47.767s-.178,2.381,1.65,2.547,5.388.6,7.78-.807a10.435,10.435,0,0,0,3.317-2.818,27.006,27.006,0,0,1-.534,3.117c-.394,1.658-4.486,2.463-5.7,2.463H704.6s-.391.047-.391-.549.221-.684.654-.684,2.085-.336,2.129-1.062,0-17.716,0-17.716,0-.973-.783-1.143-1.3-.258-1.3-.258" transform="translate(-597.81 -22.889)" fill="#231f20"/><path d="M711.765,29.689s-.93-.187-.889.528.308.91,1.12,1.212a3.72,3.72,0,0,1,2.319,3.964c-.2,2.566-1.509,3.514-2.358,3.737a13.408,13.408,0,0,1-2.855.115v1.7h2.353a3.831,3.831,0,0,1,2.665,1.395,6.4,6.4,0,0,1,1.088,3.578,4.569,4.569,0,0,1-1.94,4.072s6.51.152,6.51-5.551c0-3.227-3.829-4.282-3.829-4.282s-.923-.152-.952-.363.586-.333.986-.454,3.269-1.086,2.9-5.007-4.855-4.708-7.118-4.647" transform="translate(-594.804 -22.864)" fill="#ec1c24"/><path d="M727.208,56.389c-4.294,2.239-8.589,3.2-11.636,2.833a15.384,15.384,0,0,1-14.412-15.4c-.1-8.9,6.2-16.089,15.474-16.193,7.682-.087,14.131,4.584,14.227,12.567.05,4.366-2.673,9.723-5.959,11.586l-.562,2.484c4.592-1.152,9.228-7.181,9.149-13.954-.1-8.9-7.464-14.966-16.98-14.859a17.845,17.845,0,0,0-17.981,18.058c.121,10.209,7.9,18.058,18.6,17.939A17.883,17.883,0,0,0,732.3,52.74a21.907,21.907,0,0,1-5.094,3.649" transform="translate(-601.298 -25.452)" fill="#231f20"/><path d="M638.289,51.769V29.8h6.2V46.588H654.75v5.181Z" transform="translate(-638.289 -22.784)" fill="#ec1c24"/><rect width="5.735" height="21.972" transform="translate(19.237 7.014)" fill="#ec1c24"/></g></svg>