<svg id="Logo" xmlns="http://www.w3.org/2000/svg" xmlns:xlink="http://www.w3.org/1999/xlink" width="224" height="29.018" viewBox="0 0 224 29.018">
  <defs>
    <clipPath id="clip-path">
      <rect id="Rectangle_5" data-name="Rectangle 5" width="224" height="29.018" fill="none"/>
    </clipPath>
    <clipPath id="clip-path-3">
      <rect id="Rectangle_2" data-name="Rectangle 2" width="18.318" height="5.286" fill="none"/>
    </clipPath>
  </defs>
  <g id="Group_8" data-name="Group 8" clip-path="url(#clip-path)">
    <path id="Path_1" data-name="Path 1" d="M9.156,0,12.2,5.286H6.1l3.051,5.288H4.527L0,18.447H9.153L6.1,23.733h6.1L9.156,29.018h16.69L22.8,23.733h6.107l-3.057-5.287h9.185l-4.574-7.873H25.851l3.057-5.288H22.8L25.846,0Z" transform="translate(0 0)" fill="#fff"/>
    <path id="Path_2" data-name="Path 2" d="M9.8.371l3.045,5.287H6.75L9.8,10.947H4.694L.644,17.99H9.8L6.75,23.275h6.1L9.8,28.562H25.058l-3.045-5.288h6.106L25.061,17.99h9.183l-4.092-7.043H25.061l3.057-5.289H22.012L25.058.371Z" transform="translate(0.073 0.042)" fill="#fff"/>
    <path id="Path_3" data-name="Path 3" d="M16.333,15.4l3.05,5.283,3.054,5.285H10.226l3.054-5.285Z" transform="translate(1.16 1.747)" fill="#aa198d"/>
    <path id="Path_4" data-name="Path 4" d="M16.333,11.734,13.28,6.45,10.226,1.164H22.437L19.383,6.45Z" transform="translate(1.16 0.132)" fill="#f9be00"/>
    <path id="Path_5" data-name="Path 5" d="M21.815,11.2h-6.1l3.05-5.284h6.108Z" transform="translate(1.782 0.67)" fill="#3fae2a"/>
    <path id="Path_6" data-name="Path 6" d="M8.107,15.943H2l3.05-5.285H11.16Z" transform="translate(0.227 1.209)" fill="#e81d27"/>
    <path id="Path_7" data-name="Path 7" d="M10.538,11.2h6.107L13.591,5.911H7.485Z" transform="translate(0.849 0.67)" fill="#ff671b"/>
    <path id="Path_8" data-name="Path 8" d="M24.248,15.943h6.107L27.3,10.658h-6.11Z" transform="translate(2.404 1.209)" fill="#009578"/>
    <path id="Path_9" data-name="Path 9" d="M10.538,15.4h6.107l-3.054,5.283H7.485Z" transform="translate(0.849 1.747)" fill="#e7417a"/>
    <path id="Path_10" data-name="Path 10" d="M21.815,15.4h-6.1l3.05,5.283h6.108Z" transform="translate(1.782 1.747)" fill="#0082ca"/>
    <g id="Group_5" data-name="Group 5" transform="translate(0 0)">
      <g id="Group_4" data-name="Group 4" clip-path="url(#clip-path)">
        <g id="Group_3" data-name="Group 3" transform="translate(8.333 11.866)" style="mix-blend-mode: multiply;isolation: isolate">
          <g id="Group_2" data-name="Group 2">
            <g id="Group_1" data-name="Group 1" clip-path="url(#clip-path-3)">
              <path id="Path_11" data-name="Path 11" d="M10.538,10.658,7.485,15.943H25.8l-3.054-5.285Z" transform="translate(-7.484 -10.657)" fill="#001cae"/>
            </g>
          </g>
        </g>
      </g>
    </g>
    <path id="Path_12" data-name="Path 12" d="M19.072,5.911h-6.1L14.5,8.554,16.023,11.2l1.524-2.641Z" transform="translate(1.471 0.67)" fill="#001cae"/>
    <path id="Path_13" data-name="Path 13" d="M12.969,20.688h6.1L16.022,15.4Z" transform="translate(1.471 1.747)" fill="#001cae"/>
    <g id="Group_7" data-name="Group 7" transform="translate(0 0)">
      <g id="Group_6" data-name="Group 6" clip-path="url(#clip-path)">
        <path id="Path_14" data-name="Path 14" d="M43.112,13.88ZM211.5,6.058h-4.425l-5.839,7.59,6.117,8.269h5.567l-6.9-9.032ZM196.2,21.91h4.747V6.058H196.2Zm-7.745-8.145c0,.5.029,1.405.029,1.905h-.029a8.131,8.131,0,0,0-1-1.817l-5.422-7.8h-5.068V21.91h3.514V13.178c0-.528-.029-1.288-.029-1.668h.029A8.007,8.007,0,0,0,181.3,13l6.491,8.916h4.176V6.058h-3.516ZM168.446,6.058l6.728,15.853H170.1l-1.66-3.871h-7.234l-1.793,3.871H155.9l7.258-15.853Zm-1.084,9.462-1.783-4.16c-.209-.7-.473-1.39-.559-1.886h-.029a17.188,17.188,0,0,1-.7,1.915l-1.913,4.131ZM97.841,14.8v-.016a4.551,4.551,0,0,0,3.5-4.51c0-2.9-2.461-4.22-5.89-4.22H86.71V21.91h4.748V8.225H93.2c1.875,0,3.224.675,3.224,2.7,0,1.787-1.115,2.9-3.137,2.9H92.127l5.839,8.087h5.356s-4.131-5.618-4.4-5.978A13.761,13.761,0,0,0,97.841,14.8M70.115,21.91H65.042l-1.66-3.871H56.135l-1.78,3.872H50.836L58.094,6.058h5.292ZM62.3,15.519l-1.784-4.16c-.207-.7-.472-1.39-.559-1.886h-.028a17.41,17.41,0,0,1-.7,1.915l-1.914,4.131Zm5.772-6.736h5.963V21.91h4.747V8.783h5.864V6.058H68.074Zm37.2,13.127h4.748V6.058h-4.748Zm19.3-15.853L131.3,21.91H126.23l-1.66-3.871h-7.234l-1.793,3.871h-3.52l7.258-15.853Zm-1.087,9.462-1.783-4.16c-.207-.7-.472-1.39-.558-1.886h-.03a16.967,16.967,0,0,1-.7,1.915L118.5,15.519ZM42.46,8.226h1.423c1.875,0,3.416.674,3.416,2.694,0,1.787-1.308,2.9-3.328,2.9h-.949l1.689,2.347c1.918.294,7.576-.6,7.512-5.348-.04-2.9-2.463-4.765-5.893-4.765H37.712V21.91H42.46ZM155.541,16.2c.765,2.726-.678,5.115-4.814,5.612l-.048.006-.023,0h0a11.8,11.8,0,0,1-1.508.091h-8.617V6.058h8.618c3.429,0,5.308,1.589,5.049,4.506a3.486,3.486,0,0,1-2.981,2.9,6.353,6.353,0,0,1,2.879.948h0a3.045,3.045,0,0,1,1.447,1.788M146.7,8.226h-1.423v4.607h1.814c.065,0,.131,0,.194-.007a2.36,2.36,0,0,0,2.349-2.428c0-1.57-1.058-2.172-2.934-2.172m-1.423,11.5h2.686s2.474.115,2.666-2.038c.008-.089.013-.178.013-.275a2.808,2.808,0,0,0-.108-.784c-.579-1.82-3.314-1.79-3.314-1.79h-1.943Z" transform="translate(4.277 0.524)" fill="#001cae"/>
      </g>
    </g>
  </g>
</svg>
