<svg xmlns="http://www.w3.org/2000/svg" viewBox="0 0 240 80">
  <rect width="240" height="80" fill="white"/>
  <!-- Raiffeisen cogwheel - yellow gear symbol -->
  <g transform="translate(8,8)">
    <path d="M32,2 L36.5,6 L42,4.5 L44.5,10 L50,10.5 L51,16.5 L56,19.5 L55,25.5 L59,30 L56.5,35.5 L59,41 L55,44.5 L56,50.5 L51,53 L50,59 L44.5,59.5 L42,65 L36.5,63.5 L32,67.5 L27.5,63.5 L22,65 L19.5,59.5 L14,59 L13,53 L8,50.5 L9,44.5 L5,41 L7.5,35.5 L5,30 L9,25.5 L8,19.5 L13,16.5 L14,10.5 L19.5,10 L22,4.5 L27.5,6 Z" fill="#FFDD00"/>
    <circle cx="32" cy="34.5" r="12" fill="white"/>
    <circle cx="32" cy="34.5" r="7" fill="#FFDD00"/>
  </g>
  <text x="86" y="36" font-family="Arial,sans-serif" font-size="18" font-weight="bold" fill="#1a1a1a" letter-spacing="-0.3">Raiffeisen</text>
  <text x="86" y="57" font-family="Arial,sans-serif" font-size="14" font-weight="400" fill="#444">Bank</text>
</svg>
