<?xml version="1.0" encoding="utf-8"?>
<!-- Generator: Adobe Illustrator 27.4.0, SVG Export Plug-In . SVG Version: 6.00 Build 0)  -->
<svg version="1.1" id="Layer_1" xmlns="http://www.w3.org/2000/svg" xmlns:xlink="http://www.w3.org/1999/xlink" width="264" height="70" x="0px" y="0px"
	 viewBox="170 125 540.83 191.75" style="enable-background:new 0 0 715.83 421.75;" xml:space="preserve">
<style type="text/css">
	.st0{fill:#005CAB;}
	.st1{fill:#E5232D;}
	.st2{fill:#FBCD22;}
</style>
<polygon class="st0" points="282.36,142.09 359.69,142.09 359.69,163.16 307.46,163.16 307.46,187.56 343.39,187.56 343.39,208.59 
	307.78,208.59 307.78,235.75 363.32,235.75 363.32,257.2 282.36,257.2 "/>
<rect x="463.52" y="142.09" class="st0" width="21.67" height="18.79"/>
<rect x="463.51" y="174.07" class="st0" width="21.67" height="83.13"/>
<path class="st0" d="M507.24,174.07h19.54v15.47h0.63c2.09-4.05,4.33-7.25,6.73-9.6c2.42-2.35,4.72-4.13,7.01-5.33
	c2.24-1.19,4.25-1.92,6.11-2.19c1.83-0.27,3.2-0.38,4.14-0.38c3.57,0,6.42,0.6,8.64,1.8c2.2,1.2,3.93,2.63,5.25,4.3
	c1.3,1.64,2.23,3.38,2.83,5.15c0.58,1.78,1.02,3.18,1.34,4.23h0.78c1.04-1.48,2.29-3.12,3.69-4.93c1.42-1.83,3.12-3.53,5.08-5.09
	c2-1.56,4.3-2.86,6.97-3.93c2.67-1.04,5.81-1.54,9.37-1.54c4.18,0,7.84,1,11.06,3.05c3.19,2.03,5.45,5.02,6.8,9.03
	c0.44,1.25,0.76,2.74,1.04,4.54c0.25,1.78,0.47,3.64,0.6,5.56c0.15,1.95,0.27,3.85,0.31,5.72c0.05,1.9,0.1,3.52,0.1,4.89v52.38
	h-21.44v-56.67c0-0.93-0.12-1.95-0.24-3.06c-0.16-1.1-0.52-2.09-1.13-2.99c-0.55-0.88-1.42-1.63-2.51-2.2
	c-1.1-0.59-2.52-0.85-4.31-0.85c-1.58,0-3.38,0.41-5.35,1.25c-1.99,0.84-4.78,2.99-8.32,6.42v58.09h-21.44v-54.62
	c0-0.85-0.07-1.91-0.17-3.21c-0.11-1.31-0.39-2.56-0.88-3.79c-0.49-1.2-1.24-2.23-2.29-3.05c-1.03-0.83-2.56-1.25-4.54-1.25
	c-2.32,0-4.51,0.71-6.52,2.12c-2.08,1.42-4.57,3.44-7.47,6.05v57.75h-21.44V174.07z"/>
<polygon class="st1" points="451.59,257.17 429.07,216.78 417.66,238.85 427.13,257.17 "/>
<polygon class="st2" points="446.57,174.07 423.38,174.06 417.66,185.5 428.43,207.04 "/>
<polygon class="st0" points="419.93,212.62 396.89,257.17 372.4,257.17 397.99,211.4 377.44,174.07 400.64,174.07 "/>
<g>
	<polygon class="st2" points="176.87,228.12 156.99,266.56 135.86,266.56 157.94,227.06 140.21,194.85 160.23,194.85 	"/>
	<polygon class="st0" points="148.35,228.12 128.47,266.56 119.63,266.55 113.41,255.68 129.42,227.06 111.69,194.85 131.71,194.85 
			"/>
	<polygon class="st1" points="205.39,228.12 185.51,266.56 164.38,266.56 186.46,227.06 168.73,194.85 188.75,194.85 	"/>
	<path class="st0" d="M194.31,129.01c-4.55,0-8.94,0.97-13.05,2.88l-77.38,35.88c-4.11,1.91-7.68,4.63-10.62,8.1
		c-2.77,3.27-4.84,7.05-6.16,11.24c-2.61,8.29-1.98,17.32,1.78,25.43l33.46,72.14c5.73,12.36,17.83,20.34,30.82,20.34
		c4.55,0,8.94-0.96,13.05-2.87l77.38-35.89c4.11-1.9,7.68-4.63,10.62-8.1c2.77-3.27,4.84-7.05,6.16-11.24
		c2.61-8.3,1.98-17.33-1.78-25.43l-33.46-72.14C219.4,136.99,207.31,129.01,194.31,129.01 M98.69,197.38
		c0.02-7.54,3.94-14.52,10.73-17.67l77.38-35.88c2.42-1.12,4.97-1.66,7.51-1.66c7.63,0,15.19,4.77,18.88,12.71l33.45,72.14
		c1.44,3.1,2.13,6.34,2.13,9.49c0.02,7.6-3.9,14.63-10.73,17.8l-77.38,35.89c-2.41,1.12-4.96,1.65-7.51,1.65
		c-7.62,0-15.19-4.77-18.88-12.71L100.83,207C99.37,203.85,98.69,200.57,98.69,197.38"/>
</g>
<g>
	<path class="st0" d="M282.51,278.15c1.58-0.28,4.75-0.55,7.8-0.55c3.68,0,5.94,0.36,7.92,1.5c1.86,0.99,3.17,2.81,3.17,5.27
		c0,2.34-1.39,4.51-4.4,5.66v0.08c3.05,0.79,5.31,3.13,5.31,6.53c0,2.46-1.11,4.36-2.77,5.7c-1.94,1.54-5.19,2.41-10.49,2.41
		c-2.97,0-5.19-0.2-6.53-0.4V278.15z M288.49,288.37h1.98c3.21,0,4.87-1.31,4.87-3.29c0-2.02-1.54-3.09-4.28-3.09
		c-1.35,0-2.1,0.08-2.57,0.16V288.37z M288.49,300.21c0.59,0.08,1.31,0.08,2.34,0.08c2.73,0,5.15-1.07,5.15-3.88
		c0-2.65-2.41-3.72-5.42-3.72h-2.06V300.21z"/>
	<path class="st0" d="M322.46,299.81c0,1.82,0.08,3.6,0.32,4.67h-5.42l-0.36-1.94h-0.12c-1.27,1.54-3.25,2.38-5.54,2.38
		c-3.92,0-6.26-2.85-6.26-5.94c0-5.03,4.51-7.4,11.36-7.4v-0.24c0-1.07-0.55-2.53-3.52-2.53c-1.98,0-4.08,0.67-5.35,1.46l-1.11-3.88
		c1.35-0.75,4-1.74,7.52-1.74c6.45,0,8.47,3.8,8.47,8.4V299.81z M316.64,295.34c-3.17,0-5.62,0.75-5.62,3.05
		c0,1.54,1.03,2.3,2.38,2.3c1.47,0,2.73-0.99,3.13-2.22c0.08-0.32,0.12-0.67,0.12-1.03V295.34z"/>
	<path class="st0" d="M327.25,291.3c0-2.41-0.08-4.43-0.16-6.18h5.23l0.28,2.69h0.12c0.79-1.27,2.73-3.13,5.98-3.13
		c3.96,0,6.93,2.65,6.93,8.35v11.44h-6.02v-10.73c0-2.49-0.87-4.2-3.05-4.2c-1.66,0-2.65,1.15-3.09,2.26
		c-0.16,0.4-0.2,0.95-0.2,1.51v11.17h-6.02V291.3z"/>
	<path class="st0" d="M364.98,303.97c-1.07,0.52-3.09,0.91-5.39,0.91c-6.26,0-10.26-3.84-10.26-9.9c0-5.66,3.88-10.29,11.09-10.29
		c1.58,0,3.33,0.28,4.59,0.75l-0.95,4.47c-0.71-0.32-1.78-0.59-3.37-0.59c-3.17,0-5.23,2.26-5.19,5.42c0,3.53,2.38,5.42,5.31,5.42
		c1.42,0,2.53-0.24,3.44-0.63L364.98,303.97z"/>
	<path class="st0" d="M384.58,299.81c0,1.82,0.08,3.6,0.32,4.67h-5.42l-0.36-1.94H379c-1.27,1.54-3.25,2.38-5.54,2.38
		c-3.92,0-6.26-2.85-6.26-5.94c0-5.03,4.51-7.4,11.36-7.4v-0.24c0-1.07-0.55-2.53-3.52-2.53c-1.98,0-4.08,0.67-5.35,1.46l-1.11-3.88
		c1.35-0.75,4-1.74,7.52-1.74c6.45,0,8.47,3.8,8.47,8.4V299.81z M378.76,295.34c-3.17,0-5.62,0.75-5.62,3.05
		c0,1.54,1.03,2.3,2.38,2.3c1.47,0,2.73-0.99,3.13-2.22c0.08-0.32,0.12-0.67,0.12-1.03V295.34z"/>
	<path class="st0" d="M397.56,278.15c1.94-0.32,4.79-0.55,8.04-0.55c3.96,0,6.73,0.59,8.63,2.1c1.62,1.27,2.49,3.17,2.49,5.62
		c0,3.37-2.41,5.7-4.71,6.53v0.12c1.86,0.75,2.89,2.49,3.56,4.95c0.83,3.05,1.62,6.53,2.14,7.56h-6.18
		c-0.4-0.79-1.07-2.93-1.82-6.22c-0.75-3.37-1.9-4.24-4.4-4.28h-1.78v10.49h-5.98V278.15z M403.54,289.63h2.38
		c3.01,0,4.79-1.5,4.79-3.84c0-2.41-1.66-3.68-4.44-3.68c-1.46,0-2.3,0.08-2.73,0.2V289.63z"/>
	<path class="st0" d="M439.97,294.58c0,7.09-5.03,10.33-10.22,10.33c-5.66,0-10.02-3.72-10.02-9.98c0-6.3,4.12-10.3,10.37-10.3
		C436.01,284.64,439.97,288.73,439.97,294.58 M425.95,294.78c0,3.33,1.39,5.82,3.96,5.82c2.38,0,3.84-2.34,3.84-5.86
		c0-2.85-1.11-5.78-3.84-5.78C427.06,288.96,425.95,291.93,425.95,294.78"/>
	<path class="st0" d="M443.69,291.3c0-2.41-0.08-4.43-0.16-6.18h5.11l0.24,2.61h0.12c0.83-1.27,2.57-3.09,5.86-3.09
		c2.53,0,4.47,1.31,5.31,3.33h0.08c0.75-1.03,1.58-1.82,2.53-2.38c1.07-0.6,2.26-0.95,3.68-0.95c3.72,0,6.53,2.61,6.53,8.43v11.4
		h-5.86v-10.53c0-2.81-0.91-4.43-2.85-4.43c-1.43,0-2.38,0.95-2.81,2.1c-0.12,0.44-0.2,1.03-0.2,1.54v11.32h-5.86v-10.89
		c0-2.41-0.87-4.08-2.81-4.08c-1.54,0-2.45,1.19-2.81,2.14c-0.2,0.48-0.24,1.03-0.24,1.55v11.28h-5.86V291.3z"/>
	<path class="st0" d="M493.85,299.81c0,1.82,0.08,3.6,0.32,4.67h-5.42l-0.36-1.94h-0.12c-1.27,1.54-3.25,2.38-5.54,2.38
		c-3.92,0-6.26-2.85-6.26-5.94c0-5.03,4.51-7.4,11.36-7.4v-0.24c0-1.07-0.55-2.53-3.52-2.53c-1.98,0-4.08,0.67-5.35,1.46l-1.11-3.88
		c1.35-0.75,4-1.74,7.52-1.74c6.45,0,8.47,3.8,8.47,8.4V299.81z M487.67,276.69l3.92,6.02h-3.92l-2.02-3.44h-0.08l-1.98,3.44h-3.92
		l3.92-6.02H487.67z M488.03,295.34c-3.17,0-5.62,0.75-5.62,3.05c0,1.54,1.03,2.3,2.38,2.3c1.47,0,2.73-0.99,3.13-2.22
		c0.08-0.32,0.12-0.67,0.12-1.03V295.34z"/>
	<path class="st0" d="M498.64,291.3c0-2.41-0.08-4.43-0.16-6.18h5.23l0.28,2.69h0.12c0.79-1.27,2.73-3.13,5.98-3.13
		c3.96,0,6.93,2.65,6.93,8.35v11.44h-6.02v-10.73c0-2.49-0.87-4.2-3.05-4.2c-1.66,0-2.65,1.15-3.09,2.26
		c-0.16,0.4-0.2,0.95-0.2,1.51v11.17h-6.02V291.3z"/>
	<path class="st0" d="M526.47,296.72c0.16,2.5,2.65,3.68,5.46,3.68c2.06,0,3.72-0.28,5.35-0.83l0.79,4.08
		c-1.98,0.83-4.39,1.23-7.01,1.23c-6.57,0-10.33-3.8-10.33-9.86c0-4.91,3.05-10.33,9.78-10.33c6.26,0,8.63,4.87,8.63,9.66
		c0,1.03-0.12,1.94-0.2,2.38H526.47z M533.56,292.6c0-1.46-0.63-3.92-3.41-3.92c-2.53,0-3.56,2.34-3.72,3.92H533.56z"/>
	<path class="st0" d="M558.86,299.81c0,1.82,0.08,3.6,0.32,4.67h-5.42l-0.36-1.94h-0.12c-1.27,1.54-3.25,2.38-5.54,2.38
		c-3.92,0-6.26-2.85-6.26-5.94c0-5.03,4.51-7.4,11.36-7.4v-0.24c0-1.07-0.55-2.53-3.52-2.53c-1.98,0-4.08,0.67-5.35,1.46l-1.11-3.88
		c1.35-0.75,4-1.74,7.52-1.74c6.45,0,8.47,3.8,8.47,8.4V299.81z M553.04,295.34c-3.17,0-5.62,0.75-5.62,3.05
		c0,1.54,1.03,2.3,2.38,2.3c1.47,0,2.73-0.99,3.13-2.22c0.08-0.32,0.12-0.67,0.12-1.03V295.34z"/>
	<path class="st0" d="M563.61,299.26c1.11,0.67,3.41,1.43,5.19,1.43c1.82,0,2.57-0.59,2.57-1.58c0-1.03-0.59-1.5-2.81-2.26
		c-4.04-1.35-5.58-3.52-5.54-5.82c0-3.64,3.09-6.38,7.88-6.38c2.26,0,4.24,0.56,5.42,1.15l-1.03,4.16c-0.87-0.48-2.57-1.11-4.2-1.11
		c-1.47,0-2.3,0.59-2.3,1.54c0,0.95,0.75,1.43,3.13,2.26c3.68,1.27,5.19,3.17,5.23,5.98c0,3.64-2.81,6.29-8.35,6.29
		c-2.53,0-4.79-0.59-6.26-1.39L563.61,299.26z"/>
	<path class="st0" d="M595.36,303.97c-1.07,0.52-3.09,0.91-5.39,0.91c-6.26,0-10.26-3.84-10.26-9.9c0-5.66,3.88-10.29,11.09-10.29
		c1.58,0,3.33,0.28,4.59,0.75l-0.95,4.47c-0.71-0.32-1.78-0.59-3.37-0.59c-3.17,0-5.23,2.26-5.19,5.42c0,3.53,2.38,5.42,5.31,5.42
		c1.42,0,2.53-0.24,3.44-0.63L595.36,303.97z"/>
	<path class="st0" d="M614.96,299.81c0,1.82,0.08,3.6,0.32,4.67h-5.42l-0.36-1.94h-0.12c-1.27,1.54-3.25,2.38-5.54,2.38
		c-3.92,0-6.26-2.85-6.26-5.94c0-5.03,4.51-7.4,11.36-7.4v-0.24c0-1.07-0.55-2.53-3.52-2.53c-1.98,0-4.08,0.67-5.35,1.46l-1.11-3.88
		c1.35-0.75,4-1.74,7.52-1.74c6.45,0,8.47,3.8,8.47,8.4V299.81z M604.51,277.08c0.2,1.43,0.91,2.42,2.34,2.42
		c1.62,0,2.34-1.15,2.41-2.42h3.13c-0.04,3.33-1.94,5.62-5.54,5.62c-3.68,0-5.42-2.45-5.46-5.62H604.51z M609.14,295.34
		c-3.17,0-5.62,0.75-5.62,3.05c0,1.54,1.03,2.3,2.38,2.3c1.47,0,2.73-0.99,3.13-2.22c0.08-0.32,0.12-0.67,0.12-1.03V295.34z"/>
</g>
</svg>
