<?xml version="1.0" encoding="UTF-8"?>
<!-- Generator: Adobe Illustrator 18.1.1, SVG Export Plug-In . SVG Version: 6.00 Build 0)  -->
<svg version="1.1" id="Layer_1" xmlns="http://www.w3.org/2000/svg" xmlns:xlink="http://www.w3.org/1999/xlink" x="0px" y="0px" viewBox="0 0 125.9 32" enable-background="new 0 0 125.9 32" xml:space="preserve">
<symbol id="Symbol_3" viewBox="-285.6 -72.6 571.3 145.2">
	<path fill-rule="evenodd" clip-rule="evenodd" fill="#000066" d="M-282.1,32.4h-3.5v4.4h54v-4.4h-3.2c-4.4,0-7.5-0.9-9.3-2.8   c-2-2-3.1-5.7-3.1-11.1v-70.2c0-5.1,0.8-8.6,2.5-10.5c2-2.3,5.8-3.4,11.5-3.5l1.6,0v-4.3h-54v4.4h1.6c5.7,0,9.6,1.1,11.5,3.4   c1.7,1.9,2.5,5.5,2.5,10.6v70.2c0,5.4-1,9.1-3,11.1C-274.8,31.5-277.8,32.4-282.1,32.4z"/>
	<path fill-rule="evenodd" clip-rule="evenodd" fill="#000066" d="M-124.5,36.8h37.6v-4.2c-7.5,0-12.1-2.3-13.7-7   c-0.7-2-1-4.9-1.1-8.8c-0.1-2.3-0.1-6.4,0-12.3v-74.9l-5.4,0.1l-81.2,85l0.5-2.5c0.3-1.9,0.5-3.3,0.5-4.4v-52.5   c-0.2-9.4,0.6-15.4,2.4-17.9c1.7-2.3,5.6-3.5,11.9-3.4v-4.4h-39.1v4.4c6.4,0,10.4,1.1,12,3.4c1.8,2.5,2.7,8.6,2.8,18.1l-0.1,60   c0.2,5.6-0.8,9.7-3,12.4c-2.5,2.9-6.6,4.4-12.4,4.3v4.2h36.1l67.4-70.9c-0.6,2.9-1,5.2-1.1,6.9v32c0,5.8,0,9.9,0,12.3   c-0.1,3.9-0.4,6.8-1,8.8c-1.4,4.7-5.8,7-13,7V36.8z"/>
	<path fill-rule="evenodd" clip-rule="evenodd" fill="#000066" d="M21,13.4c-1.7,2.6-4,5.1-7,7.5c-3.7,2.9-8,5.3-12.9,7   c-4.9,1.8-9.7,2.7-14.2,2.7c-5.1,0-9.8-0.9-14.3-2.7c-4.4-1.8-8.3-4.4-11.6-7.8c-4.2-4.2-7.3-9.5-9.5-16C-50.5-2-51.6-9.1-51.6-17   c0-7.3,1.1-14,3.2-20c2.2-6.2,5.5-11.5,9.8-15.8c3.8-3.8,8-6.6,12.8-8.6c4.8-2,9.9-3,15.3-3c3.7,0,7.1,0.5,10.4,1.6   c3.2,1.1,6.9,3,10.9,5.6v26c0,4.9-0.8,8.1-2.4,9.6C6.7-20,3.2-19.1-2.3-18.9l-1.6,0v4.2h47.5v-4.2l-1.6,0c-4.8-0.2-7.9-1.1-9.2-2.8   c-1.3-1.7-2-5.5-2-11.5v-28l-2.5-1.4c-7.3-3.9-13.8-6.6-19.5-8c-5.8-1.4-12.8-2.1-21-2.1c-9.9,0-18.5,1.2-25.6,3.5   c-7.2,2.4-13.9,6.1-20,11.4c-12,10.3-18,22.9-18,37.8c0,7.8,1.4,15.2,4.1,22.3c2.8,7,6.9,13.2,12.1,18.6   c5.8,5.8,12.6,10.2,20.4,13.3c7.8,3.1,16.2,4.6,25.1,4.6c4.6,0,9.4-0.5,14.5-1.5c5.1-1.1,9.8-2.5,14-4.3c1.7-0.8,3.1-1.2,4.3-1.2   c1.8,0,3,1.9,3.6,5.6l0.2,1.4h4.1l3-36.3h-4l-0.4,1.2C24.2,7.6,22.7,10.8,21,13.4z"/>
	<g id="Layer_3_1_">
		<g>
			<path fill-rule="evenodd" clip-rule="evenodd" fill="#FF6600" d="M218.4-46.2c0.3,0.4,0.4,1.1,0.3,2c-0.8,0-1.7,0.3-2.7,0.9     c-0.4,0.2-0.6,0.3-0.8,0.3c-0.3,0.1-0.6,0-0.8-0.3c-0.5-0.4-1.1-1-1.7-1.9c-0.5-0.9-1.1-1.4-1.6-1.7c0.6-0.3,1.6,0,3,0.9     c0.5,0.1,1.2-0.1,2.2-0.7c0.1-0.2,0.1-0.5,0.1-0.8c-0.1-0.4-0.1-0.6-0.1-0.8c2.3-0.6,4.3-1.5,5.8-2.5l0.6,0.6     c0.1,1-0.6,2.1-2.1,3.3c-0.2,0.1-0.6,0.2-1.2,0.3C219-46.6,218.6-46.4,218.4-46.2z M233.9-43.6l2.4-3.3c0.9,1.4,1.1,3.4,0.6,6     c-0.5,0.6-0.9,0.9-1.3,0.7c-0.3-0.3-0.6-0.9-0.9-1.7C234.4-42.7,234.1-43.3,233.9-43.6z M233.5-51.6c-0.1,0.3-0.1,0.8,0,1.3     c0.2,0.5,0.3,0.9,0.3,1.2c-0.5,1.3-1.4,2.3-2.6,3.1l-1.4-2.8c0.2-0.4,0.9-1.4,2.1-2.9c0.9-1.2,1.4-2.2,1.5-3.1     c0.4,0.4,0.8,1.1,1.3,2.1c0,0.2-0.2,0.4-0.5,0.6C233.8-51.9,233.6-51.7,233.5-51.6z M195.4-60.4c0.7,1.1,1.1,1.7,1.2,1.8     c0.1-0.2,0.4-0.7,0.9-1.5c0.4-0.7,0.8-1.2,1.2-1.5c0.5,0.7,0.8,1.5,0.9,2.4c0.1,0.9,0.1,1.8-0.2,2.6l-0.9,1     c0.8,0.2,2.1,0.4,3.8,0.7c-0.2-0.6-0.5-1.5-0.9-2.7c-0.4-1-0.5-2-0.5-2.8c0-2,0.3-5,0.8-9.1H198c-0.9,2-1.5,3.5-1.9,4.4     C195.7-63.4,195.4-61.9,195.4-60.4z M192.3-30.4c0.7-0.7,1.1-1.6,1.2-2.7c0-0.7,0-1.8-0.2-3.2c-0.1-0.5,0.1-0.7,0.6-0.8     c0.7-0.1,1.1-0.2,1.2-0.4c0.5-0.7,0.7-1.5,0.6-2.6c0-0.5-0.2-1.4-0.5-2.8c0.3,0.5,0.8,1.1,1.4,2c0.5,0.8,0.9,1.5,1.2,2.1     c0,0.2,0.1,0.4,0.4,0.7c0.3,0.3,0.4,0.6,0.3,0.9c0.1,0.4,0,0.6-0.3,0.6c-0.5,0-0.8,0-1,0c-0.6,0.1-0.8,0.4-0.7,0.9     c0.4,0.7,0.5,1.6,0.3,2.7c-0.3,1.2-0.5,2.1-0.6,2.6c-0.1,0.4-0.1,1.1-0.1,2.3c0,1-0.1,1.7-0.3,2.1c-0.1-0.1-0.9-0.7-2.4-1.8     C192.3-28.6,191.9-29.4,192.3-30.4z M201.3-21.4c-0.3,0.3-0.9,1.3-1.8,3c-0.7,1.3-1.5,2-2.6,2.2c-0.7,0.3-1.2,1.1-1.3,2.3     c-1.1,1-2.7,1.5-4.9,1.5c1.8-1.1,3.1-2.3,3.7-3.5c0.4-1.3,1.1-3,2.1-4.9c1.3-2.6,2-4.2,2.3-4.9c0.8-3.5,1.3-5.7,1.5-6.6     c0.1-0.2,0.2-0.6,0.3-1.1c0.1-0.4,0.4-0.6,0.8-0.6c0.5,3.3,0.8,5.9,0.8,7.6c-0.4,0.5-0.8,0.9-1.4,1.3c-0.7,0.4-1.2,0.7-1.5,0.9     v0.3c0.2,0.8,0.7,1.2,1.3,1.1c0.1,0.1,0.3,0.3,0.7,0.6C201.4-21.9,201.4-21.6,201.3-21.4z M204.2-22.2l-1-0.4     c0-0.2,0.1-0.5,0.4-0.9c1.5-2.4,2.6-4.6,3.4-6.6c0.2,1.7,0.3,3,0.4,3.9c0.1,1.6-0.3,2.7-1.1,3.5c-0.1,0.3-0.4,0.5-0.9,0.6     C205.2-22.1,204.8-22.1,204.2-22.2z M174.9-37.9l0.5-1l1.4-5.2c0.5-2,0.6-3.8,0.1-5.3c0.4-0.3,0.8-0.7,1.1-1.3     c0.2-0.3,0.5-0.8,0.9-1.5h0.1c0.3,1.3,0.5,2.7,0.4,4.4c0,0.8-0.2,2.3-0.5,4.4c0.1,1.1-0.3,2.2-1.3,3.3     C176.4-39.1,175.5-38.3,174.9-37.9z M185.9-25.1c-0.1-0.2-0.5-0.8-1.3-1.9c-0.5-0.8-0.8-1.5-0.8-2.1c-0.1-0.6,0.1-1.2,0.8-1.6     c0.3-0.2,0.8-0.6,1.5-1c0.2-0.3,0.3-0.6,0-1c-0.3-0.5-0.5-0.8-0.5-1c1.3-1.8,2-3.7,2-5.7c0.8,2.7,1.4,4.7,1.6,6.1     c0,0.4-0.5,0.9-1.3,1.3c-0.7,0.4-1,0.9-0.9,1.5c0.3,0.7,0.3,1.5,0.1,2.4c-0.3,1.1-0.5,1.9-0.7,2.4     C186.4-25.2,186.1-25,185.9-25.1z M191.8-21.4c-0.6,1-0.9,1.6-0.9,1.6c-0.1,0.2-0.1,0.6-0.2,1.3c0,0.6-0.1,1-0.3,1.3     c-0.7,0.5-1.2,0.7-1.5,0.6l-0.5-4.6l1.7-3.4c0.3,0,0.7,0.2,1,0.5c0.2,0.2,0.5,0.5,0.9,0.9C192.2-22.6,192.1-22,191.8-21.4z      M186.5-14.7c-0.3,1.5-1.1,2.7-2.4,3.7c-0.3-1.5-0.4-2.4-0.4-2.9c-0.1-1.3,0.5-2.4,1.8-3.3c0.3,0.5,0.5,0.9,0.6,1.2     C186.4-15.5,186.5-15.1,186.5-14.7z M175.5-3.7c0.8-0.6,1.9-1,3.1-1.1c1.2-0.1,2.3,0,3.4,0.4c-1.7,0.9-2.9,1.7-3.7,2.4L175.5-3.7     z M201.4-9.6c-0.7,0.1-1.7,0.6-3,1.8c-1.2,1-2.2,1.4-3.1,1.2c0.8-0.8,2.2-2.3,4.1-4.5c1.7-1.9,3.1-3.4,4.3-4.4c0,0.5,0,1.2,0,1.9     c-0.1,1.2-0.1,1.9-0.1,1.9C203.3-11.4,202.6-10.7,201.4-9.6z M220.3-36.9c-0.4,0.1-0.9,0-1.5-0.3c-0.7-0.3-1.2-0.4-1.5-0.4     c-0.5-0.7-0.8-1.2-1.1-1.5c-0.2-0.6-0.3-0.9-0.3-1c0-0.4,0.2-0.7,0.6-0.8c0.7,0,1.9,0,3.5,0.3c1.4,0.1,2.4-0.2,3.1-0.9     c0.2-0.2,0.4-0.5,0.4-0.9c0-0.2,0-0.6-0.1-1l2.8-2.4c0.2,0.9,0.4,1.6,0.5,2.1c0.2,0.8,0.3,1.5,0.3,2.1c-0.2,1.2-0.8,2.1-1.7,2.8     c-0.6,0-1.4,0.4-2.4,1.1C221.8-37.1,221-36.8,220.3-36.9z M218.3-30.6c-0.1-0.5-0.1-1.3-0.1-2.4c-0.2-0.3-0.3-0.5-0.4-0.6     c-0.2-0.2-0.3-0.4-0.3-0.6c0.4,0.1,1,0.5,1.8,1.1c0.7,0.5,1.3,0.8,1.8,0.8c2.3,0,4-0.9,5.3-2.8c0.2-0.1,0.5-0.5,0.8-1.1     c0.2-0.5,0.6-0.8,1-0.8c-0.1,0.6-0.1,1.4,0,2.3c0.1,1.2,0.1,2,0.1,2.5c-0.4,0.7-1.5,1.2-3.1,1.5c-1.6,0.2-2.6,0.8-3,1.8l-2.5-0.1     C218.9-29.2,218.5-29.7,218.3-30.6z M225.8-25.4c0.3-0.1,0.6-0.3,0.6-0.6c0.1-0.3,0-0.6-0.1-0.9c0.8-0.5,2-1.1,3.7-2l-0.3,2     c0,0.7-0.5,1.5-1.5,2.3c-1,0.8-1.5,1.5-1.5,2.3c-2.4,0.8-4.7,0.9-7.1,0.4c-0.3-0.3-0.7-0.5-1.3-0.6c-0.7-0.1-1.2-0.1-1.5-0.2     c0,0,0-0.3,0.1-0.6c0.4-0.8,0.6-1.4,0.8-1.6c0.3-0.6,0.7-0.9,1-0.9c1.1,0.5,2.3,0.8,3.4,0.9C223.6-24.8,224.8-25,225.8-25.4z      M228.7-14.5c-0.6-0.6-1.3-0.9-2-0.9c-1.8,0.6-3.2,0.9-4.1,1.1c-1.7,0.3-3.1,0.1-4.2-0.5c-0.4-0.5-1-0.8-1.8-0.9     c-1.2-0.2-1.9-0.3-2-0.4c0.1-1.2,0.2-2.3,0.5-3.3c0.3-0.3,0.7-0.5,1.3-0.6c0.3-0.1,0.9-0.1,1.5-0.2l2.9,1.2     c0,0.1-0.1,0.3-0.4,0.6c-0.2,0.2-0.3,0.5-0.3,0.7c0.3,0.3,0.8,0.5,1.4,0.5c0.8,0,1.3,0,1.5,0.1c0.5,0.1,1.2,0.3,2.1,0.8     c0.8,0.3,1.5,0.2,2.1-0.2c0-0.3,0-0.4-0.1-0.5c-0.3-0.9,0-1.6,1.1-2.1c0.2,0,1-0.4,2.4-1c1-0.4,1.8-0.4,2.4-0.1     c-0.1,0.8-0.4,2.1-0.9,3.9c-0.5,0.1-1.1,0.4-1.9,0.9C229.6-14.9,229-14.6,228.7-14.5z M215.4-7.9c-0.7-0.4-1.4-0.6-2-0.6     c-0.2-1.7-0.1-2.8,0.1-3.4c0,0.1,0,0.2,0.1,0.2c0.1-0.1,0.1-0.3,0.1-0.6c0-0.3,0.1-0.4,0.3-0.4c0.6,0.3,1.4,0.8,2.5,1.6     c0.8,0,1.7,0.4,2.9,1.1c1.2,0.7,2.1,1.1,2.9,1.1c4.7-0.8,8.2-1.9,10.5-3.2c-0.1,1-0.6,2-1.4,3c-0.7,0.9-1.6,1.6-2.6,2.1     c-0.8,0.3-1.7,0-2.7-0.8c-0.8-0.5-1.3-0.3-1.5,0.5c-0.3,1.1-0.7,1.6-1.1,1.6c-2.8-0.9-4.9-1.3-6.4-1.1     C216.9-6.9,216.4-7.3,215.4-7.9z M216.3,0c-1.1-0.9-2-1.5-2.6-1.9c-0.6-1.2-0.7-2.3-0.2-3.1c1.2,0.4,2,0.8,2.4,1     c0.9,0.8,2.2,1.2,3.9,1.1c0.9,0,2.3-0.2,4.1-0.4c-0.3,0.5-0.9,1.4-1.8,2.6c-0.6,0.2-1.1,0.4-1.4,0.5c-0.5,0.2-1,0.3-1.5,0.3     C218.3,0.7,217.3,0.6,216.3,0z M222.2,6.2c-1.2,0-2,0.1-2.5,0.1c-1,0.1-1.5,0.6-1.6,1.5c-0.4,0.3-0.9,0.5-1.6,0.4     C215.6,8.1,215,8,214.7,8c-1-0.7-1.7-1.6-2.3-2.5c0-0.3-0.1-0.7-0.3-1.3c-0.1-0.5-0.1-0.9,0.2-1.3c0.3,0.4,0.8,0.6,1.5,0.8     c0.4,0.1,1,0.3,1.7,0.4c1.3,0.1,2.8,0,4.4-0.3c0.1,0,1.5-0.4,4.2-1C223.4,4.4,222.7,5.5,222.2,6.2z M150.6-58.1     c0.5-0.6,0.6-1.4,0.4-2.4c-0.1-0.5-0.4-1.3-0.8-2.4c-0.3-1.4-1-3.6-2-6.6h-3.4l1.2,9.9c0.2,0.3,0.5,0.8,0.9,1.4     c0.4,0.6,0.8,0.9,1.4,1C149.3-57.3,150.1-57.5,150.6-58.1z M137.8-64.5c-0.4,2-0.6,3.8-0.6,5.3c0.1,0.2,0.4,0.6,0.8,1.4     c0.3,0.6,0.6,1,0.9,1.3h0.3l3.2-3l0.5,0.1c-0.3-4.1-0.5-7.5-0.5-10.3h-3.5C138.4-67.3,138-65.6,137.8-64.5z M156.2-51.8     c-0.5-0.1-0.8-0.2-0.9-0.2l-1-0.4c0.4-0.3,0.9-0.8,1.7-1.5c0.7-0.6,1.5-0.8,2.2-0.7c0.8-0.4,1.3-1.2,1.5-2.4     c0.3-1.5,0.5-2.4,0.8-2.8l1.2,1.1l-0.1,0l0.1,0.1l0.1,0c0.1,0.4,0.1,1-0.1,1.9c-0.1,0.7-0.3,1.4-0.6,2c-0.3,0.2-0.7,0.3-1.3,0.3     c-0.5,0-0.9,0.1-1.1,0.3c0,0.5-0.2,0.9-0.5,1.3c-0.1,0.2-0.5,0.6-1,1C156.9-51.7,156.6-51.6,156.2-51.8z M165.4-51.9     c0.4,0.7,0.3,1.4-0.4,2c-0.9,1-1.4,1.6-1.4,1.7l0.1,0.1l3.5-0.4c0.5-0.3,1-0.8,1.3-1.5c0.2-0.3,0.4-0.9,0.7-1.8     c1.2-0.2,2.1-0.9,2.9-2.3c0.4-0.7,1-1.9,1.5-3.4c0.2,0.5,0.4,1.2,0.7,2.1c0.2,0.9,0.5,1.6,0.6,2.1c0,0.4-0.2,0.8-0.8,1     c-0.7,0.2-1.1,0.4-1.4,0.6c-0.2,1.9-1.1,3.4-2.5,4.4c-0.3,0.1-1.8,0.6-4.5,1.5c-1.8,0.6-3.3,1-4.6,1l-2.9-0.9     c-0.2,0-0.9-0.1-2.3-0.3c-0.9-0.1-1.5-0.3-2-0.8c-0.7,0-1.3-0.4-1.6-1.2c-0.2-0.4-0.4-1.1-0.6-2h0.4c0.6,0.4,1.6,0.6,3,0.7     c1.4,0.1,2.4,0.3,3,0.8c0.4,0.2,0.7,0.1,1-0.3c0.4-0.5,0.6-0.8,0.8-0.9c0.3-0.2,0.9-0.9,1.9-2.3c0.6-0.9,1.4-1.3,2.3-1     c1.2-0.6,1.9-1.7,2-3.3c0.1-0.9,0.2-2.3,0.1-4.1l2.6,1.6c0,0.2,0,0.9,0,2c0.1,0.9-0.1,1.5-0.4,2c-0.2,0.5-0.7,1-1.5,1.5     C166.1-52.6,165.6-52.2,165.4-51.9z M104-45.4c-1.2,0.4-2,0.7-2.4,1c0,0.6-0.3,1-0.9,1c-0.8,0-1.4,0-1.7,0.1l-0.4,0.4     c-0.1,0.1-0.3,0.2-0.5,0.3c-0.2,0-0.4-0.1-0.5-0.2c-0.1,0.1-0.2,0.3-0.1,0.4l-0.8-0.2c-1.1-1-1.7-2.1-1.8-3.4     c0.2-0.1,0.6,0,1.1,0.1c0.5,0.1,0.9,0.1,1.1,0c2.1-0.8,3.6-1.4,4.6-1.9c1.7-0.8,3-1.8,4-3l2.8-7l1.3,4.3l-0.9,2.4     c-0.3,0.7-1,1.2-1.9,1.4c-0.2,0-1,0.1-2.4,0.2c-0.2,0.3-0.3,0.6-0.1,1c0.2,0.5,0.3,0.8,0.4,1C105.3-46.6,105-45.9,104-45.4z      M128.7-60.5c0.4,0.3,1.2,0.6,2.3,1.1c0.8,0.5,1.3,1.1,1.5,1.9c-0.3,0.3-0.6,0.5-0.8,0.6c-0.3,0.2-0.6,0.4-0.8,0.5l-1.4-0.5     c0,0.3,0.1,0.8,0.4,1.3c0.3,0.7,0.4,1.1,0.4,1.3l4.4,1.4c-0.4-1.2-0.7-3.5-1-6.8c0.3-2.2,0.5-3.9,0.8-5.2c0.4-1.9,1-3.4,1.8-4.7     h-4.7c-0.1,0.6-0.8,2.1-2,4.4C128.6-63.4,128.3-61.9,128.7-60.5z M121.4-22.8c1.8,0.4,3.3,2.2,4.5,5.2h-3l-3.2-3.1     c-0.7-0.4-1.9-1.2-3.6-2.6C117.7-23.6,119.4-23.4,121.4-22.8z M100.2-31.8l0.4-0.6c0.5,0,1.3,0.2,2.4,0.5c1,0.2,1.8,0.4,2.4,0.4     c0.4-0.2,1-0.5,1.8-0.7c0.9-0.2,1.5-0.4,1.9-0.5c1.3-1.8,2.3-2.9,3.2-3.5c1.9-0.3,3.6-2.1,5.1-5.4v1c0.3,1.2,0.1,2.6-0.5,4.4     c-0.2,0.2-0.6,0.5-1.2,0.9c-0.6,0.3-1,0.6-1.2,0.8c-0.1,0.3-0.1,0.6,0.1,1c-0.4,0.4-1,0.9-1.9,1.4c-1.2,0.7-1.9,1.1-2,1.3     c-0.7,1-1.9,1.7-3.6,1.9c-2,0.2-3.4,0.4-4.3,0.6L100.2-31.8z M98.6-36.2c-0.9-1.3-1.5-2.1-1.6-2.2c0.1-0.5,0.3-0.9,0.7-1.2     c0.5,0.1,1.3,0.4,2.3,0.8c0.9,0.3,1.7,0.3,2.4,0c1.6-1.4,2.8-2.3,3.4-2.9c1.4-1,2.6-1.8,3.9-2.3l1,0.2c0.2-0.1,0.5-0.2,0.9-0.3     c0.3-0.1,0.6-0.3,0.8-0.6c0.2-0.4,0.1-0.8-0.1-1.1c-0.2-0.2-0.4-0.6-0.7-1c0.6-0.4,1-1.1,1.1-2.1c0.2-1.2,0.5-1.9,0.7-2.3     l2.4,3.2c-0.2,1.1-0.4,1.9-0.5,2.5c-0.2,0.9-0.8,1.4-1.7,1.5c-0.8,0.4-1.2,1-1.2,1.9c-0.5,0.4-1.2,1-2.3,1.6     c-1.1,0.6-1.8,1.1-2.3,1.6c-0.1,0.1-0.7,0.6-1.6,1.5c-0.6,0.6-1.2,1-1.8,1.2c-0.8,0.4-2,0.8-3.4,1.1     C100-34.9,99.3-35.3,98.6-36.2z M107.3-23.1c0.8,0,1.9-0.1,3.4-0.2c1.2,0,2.3,0.3,3,0.9l1.9,6c-0.8,0.2-1.4,0.2-1.8,0.1     c-0.6-1.4-1.5-2.7-2.6-3.9C109.9-21.4,108.7-22.4,107.3-23.1z M102.3-4.9c-0.5-0.5-0.9-0.8-1.2-1.1c-0.5-0.5-0.8-1-0.9-1.4     c0.2-0.7,0.5-1.9,0.9-3.5c0.4,0.8,1,1.7,1.9,2.5c0.5,0.5,1.4,1.2,2.5,2.2C104.7-5.6,103.6-5.2,102.3-4.9L102.3-4.9z M110.6-11.5     c-0.8,0.5-2,0.4-3.5-0.2c-0.1-0.7-0.3-1.8-0.6-3.3c-0.2-1.3-0.4-2.4-0.4-3.4l1.5,1.5C109.5-14.9,110.5-13.2,110.6-11.5z      M122.5-5.1c0-2.1,1.4-4.3,4.1-6.6c0.1,0.7,0,1.6-0.2,2.6c-0.3,1.6-0.5,2.5-0.5,2.7c-0.3,0.2-0.9,0.4-1.7,0.6     C123.5-5.6,122.9-5.3,122.5-5.1z M114.5-7.1c-0.1,1.1-0.7,2.3-1.6,3.7c-1.5,2.1-2.3,3.2-2.3,3.4l-0.1,0.9c-0.8,0.7-1.9,1.4-3.1,2     c-0.1-0.9,0.1-2.4,0.5-4.6c0.8-1.2,1.8-2.3,2.9-3.3C112.1-6.1,113.4-6.8,114.5-7.1z M119.3-1l-3.5,2.2c0.5-2.5,1.5-4.9,3.1-7.2     L119.3-1z M153.6-36.1l0.6-0.3c0.9,0.4,2.3,1,4.1,1.9c0.6,0.2,1.6,0,3-0.5c1.2-0.4,2.1-0.4,2.8,0.2c0.3,0.2,0.6,0.2,1,0     c0.2-0.1,0.5-0.3,0.8-0.6c0.4-0.6,1-1,1.9-1.3c0.5-0.2,1.3-0.3,2.3-0.5c-0.5,1.4-1,2.4-1.4,3c-0.7,1.1-1.6,1.7-2.6,1.8     c-0.3,0.1-0.8,0.3-1.5,0.4c-0.7,0.1-1.2,0.3-1.5,0.5c-0.9,1-2.1,1.1-3.5,0.1c-1.6-1.1-2.8-1.5-3.6-1.1c-1-1.1-1.5-1.6-1.5-1.6     C154-34.8,153.7-35.5,153.6-36.1z M155.3-38.6c-0.6,0-1.3-0.2-2.1-0.5c-0.9-0.4-1.6-0.6-2-0.8c-0.4-0.7-0.9-2.1-1.6-4.1h0.3     c0.9,0.7,1.9,1.3,3.2,1.8c0.6,0.2,1.8,0.6,3.5,1.1c0.2-0.1,0.4-0.3,0.5-0.6c0.1-0.3,0.2-0.5,0.4-0.6c0.5,0.2,1.3,0.4,2.4,0.5     c1.1,0.1,1.9,0.3,2.3,0.5c2.1-0.1,3.7-0.4,4.6-0.9c0.4-0.6,1.2-1,2.3-1.4c1.3-0.4,2.1-0.8,2.5-1l-0.3,2.4     c-1.4,1.6-3.3,2.7-5.7,3.3c-1.6,0.4-3.9,0.6-6.7,0.6l-0.1,0.4C157.3-38,156.2-38.2,155.3-38.6z M157.4-18.1l-1.6,2.3h-0.8     c-1.2-0.4-3.1-0.8-5.7-1.1c2.5-1.8,4.2-3,5.1-3.4c2.1-1,4.1-1.3,6.1-0.8c0,0,0.2,0.1,0.6,0.3c0.2,0.1,0.3,0.2,0.4,0.4     C159.8-19.5,158.4-18.7,157.4-18.1z M139.3-30.5c0-0.5,0.2-1.2,0.4-2.1c1-1.1,2.4-1.9,4.3-2.3c-0.1,0.1-0.1,0.2,0,0.1     c0.1,0,0.2,0,0.3,0.1l-2.1,4.4C140.9-30.5,139.9-30.5,139.3-30.5z M133.6-35.6l-0.9,3c-1.4-0.5-3.3-0.5-5.8-0.1l2.5-3.3     C130.9-36.5,132.3-36.4,133.6-35.6z M131.8-23.6c0.8,1,1.2,2,1.4,2.8c-0.4-0.1-1.1-0.2-2.2-0.2c-0.9,0-1.6-0.1-2.1-0.4     c-0.5-1.1-0.9-1.9-1.2-2.4c-0.5-0.9-1.1-1.6-1.9-2.1c-0.1-0.4-0.4-0.9-0.9-1.5c-0.7-0.7-1-1.1-1.1-1.3c2.7,0.9,4.8,1.7,6,2.5     C130.1-25.6,130.8-24.7,131.8-23.6z M148.3-23.1c-0.3,0.4-0.9,0.9-1.6,1.6c-0.7,0.6-1.3,1.2-1.6,1.6c-1,0.4-1.4,0.9-1.4,1.6     l-6,1.5c0.1-0.7,0.3-1.3,0.5-1.8c0.9-0.3,1.8-1.2,2.8-2.6c1-1.5,1.8-2.4,2.6-2.8c0.7-0.3,1.5-0.3,2.4-0.1     C146.4-24,147.1-23.6,148.3-23.1z M146.4-5.1c-0.3-1.8,0.1-3.4,1-4.7c0.9-1.2,2.7-1.4,5.3-0.6c-0.2,0.4-0.8,0.9-1.8,1.5     c-0.9,0.6-1.5,1.2-1.6,1.6c-0.2,2.2-0.7,4.4-1.4,6.6C147-2.5,146.5-4,146.4-5.1z M132-13.5c1.1,0.9,1.9,2,2.3,3.4     c0.3,1.1,0.5,2.5,0.4,4.2c-0.9-1-1.4-1.6-1.8-1.9c-0.6-0.6-1.3-1-1.9-1.3L132-13.5z M138.7-8.1c-0.2-1,0.3-1.9,1.6-2.5     c0.7-0.4,1.7-0.9,3-1.5c-0.7,1.5-1.2,3.9-1.6,7.2C140.3-6.2,139.3-7.3,138.7-8.1z M171.4-7.1c-0.4,0.7-1,0.8-1.9,0.5     c-1.1-0.5-1.8-0.8-2.1-0.8c0-0.3,0.2-0.6,0.6-1c3.2-1.8,6-2.6,8.3-2.2c0.1,0,0.3,0.1,0.6,0.1c0.2,0.1,0.4,0.2,0.4,0.4     c-0.5,0.2-1.5,0.7-2.9,1.6C173.1-7.7,172.1-7.2,171.4-7.1z M158.4-11.7c0.5-0.8,1.2-1.5,2.3-2.3c0.6-0.5,1.5-1.1,2.7-1.9     c0.7-0.3,1.5-0.5,2.3-0.6c0.8-0.1,1.6-0.1,2.4,0.1c-1.4,1.2-2.7,2.5-4,3.9c-0.1,0.2-0.3,0.6-0.5,1.1c-0.2,0.4-0.4,0.8-0.7,1     c-1.1-0.1-1.9-0.3-2.4-0.4C159.6-11,158.9-11.3,158.4-11.7z M155.1-1.7c0.1,1.2-0.4,2.2-1.6,3c-1.5,0.7-2.5,1.3-3,1.8     c0-0.1,0.2-1.1,0.6-3.1c0.2-1.2,0.6-2.2,1-2.9c1.6-2.1,3.4-2.9,5.5-2.5c-0.8,0.8-1.4,1.4-1.6,1.8C155.4-3.1,155.1-2.4,155.1-1.7z      M166.3-1v0.3L163,2.1c-0.7-0.2-1.6-0.8-2.8-1.9c0.7-0.8,1.6-1.2,2.8-1.3C163.8-1.1,164.8-1.1,166.3-1z M167.4,4.9     c0.6-0.4,1.7-0.5,3.4-0.4c0.3,0.1,0.7,0,1.3-0.3c0.5-0.2,0.9-0.2,1.3,0c-0.5,0.3-1,0.8-1.5,1.4c-0.7,0.8-1.2,1.4-1.4,1.6     c-0.5,0.4-1.2,0.6-2.1,0.5c-0.9-0.3-1.6-0.5-2-0.6c0.2-0.2,0.4-0.6,0.6-1.1C167,5.5,167.2,5.1,167.4,4.9z M169.6,16.5     c-0.3,0.7-0.6,1.2-0.8,1.5c-0.3,0.6-0.8,0.8-1.3,0.5c-0.4,0.2-0.7,0.6-1,1.1c-0.4,0.8-0.7,1.2-0.8,1.3c-0.1-0.5-0.1-1.2-0.1-2     c0-0.5,0-1.1,0-2c0.4-0.5,1.1-1.3,2.1-2.4c0.9-0.8,1.8-1,2.8-0.7c-0.1,0.4-0.2,0.9-0.5,1.4C169.9,15.8,169.7,16.2,169.6,16.5z      M161.6,28.4l0.3,1.5c0.3,0.9,0.3,1.9-0.2,3c-0.7,1.2-1.2,2-1.4,2.6l-1.4-8L161.6,28.4z M139.6,20c0.1,0.1,0.3,0.1,0.4,0h4     l-0.5-2.1l-4,1.7C139.5,19.8,139.5,19.9,139.6,20z M136.9,40.6c0.4,0.5,0.9,0.9,1.5,1.1c0.2,0.1,0.8,0.2,1.8,0.4l8.6-0.2     c0.1-0.1,0.1-0.3,0-0.4c-0.2-0.3-0.3-0.5-0.3-0.6c-0.2-0.2-0.5-0.3-0.9-0.5c-0.4-0.2-0.7-0.4-0.9-0.5c-0.4,0-0.8-0.3-1-0.8     c-0.3-0.6-0.6-1-0.8-1.1c-0.5-0.5-1.2-0.8-2.2-0.8c-1,0.1-1.8,0.2-2.3,0.3c-0.7,0.5-1.1,1-1.3,1.5l-0.4-0.4     c0.2-0.7,0.3-1.6,0.4-2.9c0.1-1.4,0.2-2.4,0.3-2.9l2.1-1.4c0-1.2,0.7-2,2-2.5c1.8-0.6,2.9-1.1,3.1-1.5c-0.2-0.7-0.9-1.7-1.9-2.9     c-1.2,1.2-2.6,2-4.3,2.5c0,0.8-0.4,1.5-1.2,2.3c-1,0.7-1.6,1.3-2,1.5l-0.4,4.9c-0.1,2-0.3,3.6-0.6,4.8L136.9,40.6z M141.6,47.4     c0.3-0.4,0.4-0.6,0.4-0.7c0.2-0.2,0.2-0.5,0.1-0.8c-0.4-0.1-1-0.2-1.8-0.3c-0.9,0-1.5-0.1-1.9-0.1c-0.4,0.2-0.7,0.9-1.1,2     c-0.3,0.9-0.9,1.3-1.8,1.3c-0.2,0.4-0.2,0.7,0,0.8c0.5,0.2,1.3,0.2,2.4,0c0.7,0.1,1.3-0.2,1.9-0.9     C140.5,47.8,141.1,47.4,141.6,47.4z M155,55.9c1.1-2,1.2-4.6,0.5-7.9c-0.2-0.3-0.9-0.5-1.9-0.6c-0.9-0.1-1.5-0.4-1.8-1h-0.1     c-0.5,1.5-1.5,2.9-2.9,4.3c-1.3,1.3-2.7,2.3-4.3,3.1c0.3,1,0.6,1.8,0.9,2.3c0.4,0.8,1,1.4,1.7,1.8l3,0.9     C151.6,58.1,153.3,57.1,155,55.9z M130.2,13.3c-3.5,0-6.5-0.7-9.1-2c-0.5-2.6,0-4.8,1.5-6.6l2,2c0.2,0,0.3-0.1,0.4-0.2l-0.1-3.7     c0.8-0.8,1.9-1.2,3.4-1.3c0,0.4,0.2,0.9,0.5,1.4c0.5,0.8,0.8,1.2,0.8,1.3c0.1,0.1,0.2,0.5,0.3,1.1c0.1,0.5,0.3,0.9,0.5,1.1     l0.3-0.2c0.1-0.4,0.1-0.9,0.2-1.7c0.1-0.7,0.3-1.2,0.5-1.6l0.3-1.7c1.3,0,2.6,0.3,4,0.9c0,0.5,0,1.1,0.2,1.7     c0.2,0.7,0.3,1.3,0.4,1.7c0.1,0.1,0.1,0.3,0,0.7c0,0.3,0.1,0.4,0.4,0.4c0.3-0.7,0.9-1.7,1.8-3.1c1.6,1.6,2.7,4,3.2,7.2     c-0.2,0.3-0.5,0.5-1,0.7c-0.6,0.3-1,0.5-1.1,0.6C136.4,12.9,133.3,13.3,130.2,13.3z M119.3,18.5c-0.3,0.1-0.5,0.4-0.5,0.9     c0.1,0.6,0.1,1,0.1,1.2c0.3,0,1,0,2.1,0c0.9,0.1,1.5,0,2-0.3c-0.1-0.3-0.6-0.6-1.5-0.8L119.3,18.5z M101.9,35.4l1.5,2.1l-3-0.9     c-1-1.8-1.5-3.4-1.5-4.9l1.9-6c0,1,0.2,2.7,0.7,4.9C101.9,32.5,102.1,34.2,101.9,35.4z M100.2,44.9l0-2.7l2.6,1.5v3.9     c-0.4-0.3-0.9-0.7-1.4-1.3L100.2,44.9z M115.2,42.4c1,0.1,2.5,0.1,4.5,0c2.1,0,3.6,0,4.6,0c0.9-0.4,1.5-0.9,1.9-1.8     c0-1.2-0.3-3-0.6-5.3c-0.4-2.4-0.6-4.2-0.7-5.4c-1.7-0.7-2.7-1.8-3.1-3.2c-0.5-0.1-1-0.4-1.8-0.8c-1.1-0.6-1.7-0.9-1.8-0.9     c-0.3,0.6-0.4,1.2-0.3,1.9c0.1,0.7,0.3,1.3,0.8,1.8c0.3,0.4,1.2,0.9,2.8,1.8c1.2,0.6,1.7,1.4,1.6,2.5c0.3,0.6,0.5,1.3,0.4,2.3     c-0.2,1.5-0.3,2.3-0.3,2.4c-0.1,0.4-0.3,0.5-0.5,0.3c-0.3-0.4-0.6-0.5-0.7-0.5c-1.3-0.3-2.3-0.2-3.1,0.3c-0.5,0.4-0.8,0.8-1,1     c-0.4,0.4-0.6,0.8-0.8,1.3c-1.3,0.7-2.1,1.5-2.5,2.2L115.2,42.4z M124.7,48.4c0.5,0.2,1.2,0.5,2.2,0.9c0.9,0.3,1.6,0.4,2.3,0.1     c-0.8-0.8-1.7-2.1-2.8-3.9l-4.6,0.1C122.2,46.7,123.2,47.6,124.7,48.4z M112.6,59.3l1-0.1c0.9-0.4,2.3-1.1,4.4-1.9     c1.7-1,2.6-2.2,2.6-3.8c-3.1-1.2-5.5-2.7-7.3-4.6c-0.4,0.4-1.4,0.8-3.1,1.3c-1.3,0.4-2,1.2-2.3,2.3c0.3,1.8,0.8,3.2,1.3,4.2     C110.1,58.1,111.3,59,112.6,59.3z M150.3,61.8c-1.1,0.4-2.2,0.3-3.3-0.3c-0.2-0.1-1.2-0.7-2.9-1.8c-0.2,0-0.4-0.3-0.5-0.6     c-0.1-0.3-0.3-0.5-0.6-0.5c-0.7-1.8-1.2-3.1-1.4-4c-3.8,0.6-7,0-9.5-1.8c-0.6,0.4-1.3,0.8-2.3,1.1c-1.1,0.3-1.9,0.5-2.5,0.6     c-0.2,0-0.9,0-1.9,0c-0.7,0-1.2,0.1-1.5,0.4c-0.1,0.1-0.6,1-1.6,2.6c-0.6,1.1-1.3,1.7-2.2,1.8c-0.6,0.2-0.9,0.9-0.9,1.9     c-0.5,0.1-1.2,0.3-2.1,0.6c-0.9,0.3-1.6,0.5-2,0.6c-0.9,0.4-1.9,0.4-3,0c-0.3-0.1-1.1-0.6-2.5-1.6c-1-0.3-1.7-0.5-2.1-0.8     c-1.5-2.5-2.6-4.4-3.1-5.9c0.2-1.3,0.8-2.9,1.8-4.6c0.4-1,1.1-2,2.1-2.9c0.9-0.8,1.9-1.4,3-1.9c-1-3.5-1-7,0-10.6l-0.1-0.2     c-0.5,0-0.8,0-0.9,0.1h-0.1c0.4-3.1,1.9-5.9,4.4-8.4c0.3-0.1,0.6-0.4,0.7-0.8c0.2-0.7,0.3-1.1,0.3-1.2c0.1-0.1,0.2-0.3,0.3-0.6     c0-0.3,0-0.5-0.1-0.6c-5,0.1-9.6-1-14-3.5c-0.5-0.2-0.7-0.7-0.7-1.4c0-0.4,0-0.9,0-1.7c3,2,6.2,3.4,9.6,4c0.5,0,1.3,0.1,2.4,0.3     c0.9,0.1,1.7,0,2.3-0.1l0.2-2.9c-2.7-1.2-4.7-2.2-6.1-2.8c-2.4-1.2-4.3-2.5-5.6-3.9V9.1c0-0.6,0-1.1,0.1-1.5l3.1,2.5     c3.2,2.5,6.3,4.3,9.4,5.3c1.3-1.5,2.3-2.4,3-2.8c2,1.3,4.2,2.3,6.5,2.8c0.3,0.2,1,0.3,2.2,0.5c0.9,0.1,1.5,0.5,1.8,1.1l0.6,3     c-0.2,0.1-0.3,0.1-0.4,0.1c-0.8,0.5-1.4,1.1-1.8,1.8c-0.5,0.8-0.7,1.6-0.6,2.5c-0.5-0.3-1.1-0.4-1.8-0.5     c-0.7,0.2-1.1,0.5-1.3,0.8c-0.1,0.5-0.1,0.9-0.1,1.1c0,0.5,0.1,0.8,0.4,1c1.7,1.1,4.2,1.5,7.7,1.2c2-0.2,3.1-0.4,3.4-0.4     c1.2-0.4,2-1.1,2.4-2.1l-0.1-1c-0.1-0.4-0.3-0.7-0.6-0.9c-0.3-0.2-0.7-0.2-1.1-0.1c-0.1,0-0.5,0.2-1.1,0.4     c-0.7-2.2-1.8-3.5-3.3-4l0.2-1.9c0.1-0.3,0.2-0.8,0.4-1.5c0.3-0.5,0.7-0.7,1.3-0.5c2.3-0.5,5.2-1.9,8.8-4.2     c0.6,0.6,1.4,1.6,2.3,3c2.2-0.7,4.5-2,6.9-3.8c1.3-0.9,3.4-2.6,6.4-5l0.1,2.8c-3.4,3-7.6,5.6-12.6,7.8c0.3,1.2,0.4,2.1,0.4,2.8     c5.2-0.3,10.1-1.8,14.8-4.5l-0.1,2.4c-5,2.7-10,4.1-15.1,4.2c-0.2,0.3-0.3,0.6-0.2,1c1.2,0.2,2.3,0.9,3.3,2     c0.9,1,1.5,2.2,1.9,3.6c1.4,1.6,2.1,2.4,2.1,2.5c0.7,1,1,2,0.8,3l0.2,0.6c0.3,0.8,0.3,1.4,0.1,1.8c-0.5-0.6-1.3-1-2.4-1.2     c0.7,1.4,1.2,2.8,1.4,4.4c0.2,1.7,0.1,3.3-0.5,4.6c0.3,0.1,0.6,0.2,1.1,0.4c0.4,0.1,0.8,0.3,1.1,0.4l0,0.1l1.8,1.6     c1,0.7,1.6,1.8,1.8,3.3c0.3,2.3,0.5,3.6,0.6,3.9c-0.2,0.3-0.7,1.3-1.4,3c-0.6,1.2-1.2,2.1-1.9,2.8l0.1,0.1     c-0.5,0.7-1.4,1.2-2.6,1.5C151.5,61.4,150.5,61.7,150.3,61.8z M226.7,48.9c-1.2-0.6-2-1-2.5-1.1c1.1-0.6,2-0.9,2.7-0.9     c0.9,0.4,1.7,0.6,2.5,0.4c0.5-0.3,1.1-0.4,2-0.3c1.2,0.2,1.9,0.4,2.1,0.4c-0.8,0.8-2.2,1.7-4.1,2.6     C228.7,49.9,227.8,49.5,226.7,48.9z M241.8,45.5c-2-0.1-3.6-0.4-4.6-0.9c0.8-0.1,1.5-0.4,2.3-1.1c0.3-0.2,0.9-0.9,1.9-1.9     c1.2-0.2,2.4-1,3.5-2.4l-0.5,1.8C244.1,42.1,243.3,43.7,241.8,45.5z M88.5-53.4c-0.9-1.7-1.5-3.7-1.9-6c-0.3-1.6-0.5-3.8-0.6-6.5     c0.1-0.1,0.1-0.3,0.1-0.5c0-0.2,0.1-0.3,0.3-0.4c0.2,1.1,0.8,2.3,1.7,3.6c1.3,1.9,2.1,3,2.3,3.4c0.1,0.2,0.3,0.6,0.6,1.4     c0.2,0.6,0.5,1,0.9,1.3c0.5,0,1.1-0.2,1.8-0.5c0.8-0.3,1.4-0.5,1.8-0.5c0.2-0.1,0.2-0.3,0.1-0.5c-0.2-0.2-0.3-0.4-0.3-0.4     c0-0.4-0.2-1.5-0.6-3.2c-0.3-1.3-0.4-2.4-0.4-3.3h0.3c1.2,1.2,2.6,3.2,4.3,6l0.3,1.9c0.1,1-0.3,2-1.2,2.9     c-0.6,0.5-1.4,1.1-2.6,1.8l1.5,1.8l-2,0.7C92.2-50.6,90.2-51.6,88.5-53.4z M75.5-60c0.2,1.2,0.2,2.3-0.2,3.4     c-0.4,1.2-1.1,2.1-2.1,2.7L69.6-58c-0.1-1.4-0.1-3.9,0.1-7.5c0.8-1.2,1.6-1.8,2.5-1.9l0.1,1.7c0.1,0.5,0,1.7-0.1,3.6     c-0.1,1.4,0.1,2.5,0.6,3.3C73.7-59,74.6-59.4,75.5-60z M84.5-49.4l-4-0.4c-0.7-1-1.2-1.8-1.5-2.3c-0.6-0.8-1-1.6-1.2-2.4     c-1.7-5.2-2-9.5-0.7-12.8c1.3,0.9,2.2,1.5,2.6,2c-0.1,2.5-0.2,4.1-0.1,4.7c0.1,1.8,0.6,3.2,1.4,4.4c1.4-0.4,2.5-1.6,3.4-3.6     c1.1,1.4,1.5,3.2,1,5.2c0,0.6-0.3,1-0.9,1.2c-1,0.4-1.5,0.6-1.5,0.6c0.1,0.9,0.3,1.5,0.4,1.9C83.6-50.2,84-49.7,84.5-49.4z      M258.5,33.8c4.5-2.8,8.6-6.8,12.4-11.9c2.9-3.9,5.8-8.7,8.5-14.5c0.9-2.1,1.7-4.1,2.4-5.9c1.9-5.7,3.1-11.6,3.6-17.6     c0.5-6.4,0.1-12.3-1.1-17.9c-0.6-2.6-1.3-5-2.2-7.1c-1-3-2.8-6.4-5.4-10.2c-2.7-3.7-5.9-7.1-9.7-10.2c-3.5-2.5-7.4-4.2-11.8-5.2     c-4.4-1-8.8-1.2-13.2-0.5c-0.9-0.8-2.1-1.4-3.6-1.7c-1.8-0.2-3.1-0.4-4-0.5h-23.8c-0.1,0.6,0,1.2,0.3,1.9c0.4,0.8,0.5,1.5,0.5,2     c0.4,2.4,1.3,3.8,2.6,4.2l0.1,0.2c0.7-1.8,1.4-3.4,2.2-4.8c1.2,0.6,1.9,1.7,2,3.3c-0.2,1.1-1,2.3-2.4,3.7l-0.3,0.1     c0.4,0.3,0.8,0.8,1.1,1.4c0.5,0.8,0.8,1.3,1,1.5c0.9-1,1.4-1.5,1.5-1.5c0.6-0.5,1.3-0.6,1.9-0.5c0.8,0.3,1.2,0.7,1.2,1.1     c0,0.4-0.1,0.7-0.4,0.7c-1.5,1.4-2.6,2.4-3.4,3.1c-1.4,1.1-2.7,1.3-3.9,0.4c-3.4-3.7-5.4-7.2-5.9-10.6l-0.5-6.3     c-2-0.2-3.4-0.2-4.3,0c0.1,0.9,0.1,2.4,0,4.4c-0.1,1.9-0.1,3.4,0.2,4.5c0.3,0.1,0.6,0,1.1-0.4c0.2-0.2,0.6-0.4,1-0.8     c0.1-0.1,0.1-0.1,0.3-0.1c0.1,0,0.2,0,0.3,0.1c0,0.1,0.3,0.5,0.8,1.4c0.4,0.6,0.4,1.1,0,1.5c-0.1,0.4-0.4,0.8-0.9,1.3     c-0.6,0.5-1,0.9-1.3,1.2c0.1,0.4,0.3,0.9,0.7,1.5c0.2,0.3,0.6,0.8,1,1.5c0.1,0,0.2-0.1,0.2-0.2c0-0.1,0.1-0.2,0.1-0.3     c0.5-0.5,1.2-0.7,2-0.6c0.1,0,0.3,0.1,0.6,0.1c0.2,0.1,0.3,0.2,0.1,0.5c0,0-0.1,0.3-0.4,0.9c-0.2,0.4-0.1,0.7,0,0.9     c0.3,0.1,0.9,0,2-0.3c0.8-0.2,1.4,0,1.8,0.5l0.2,0.4c-1.4,0.8-2.5,1.4-3.3,1.6c-1.3,0.4-2.6,0.5-3.8,0.1     c-0.6,0.1-1.2-0.2-1.7-0.8c-0.8-0.9-1.2-1.4-1.3-1.4l-0.4-0.2c-1,0.2-2.2,0.1-3.8,0c-2-0.3-3.2-0.4-3.7-0.4l-4.3-6.6     c0-0.7,0-1.9,0-3.4c0-1.4,0.3-2.6,0.6-3.4c1-1.6,1.7-2.8,2.1-3.7h-45.7c0.5,1.1,1.5,2.4,3,4.1c0.1-0.3,0.5-0.6,1.1-0.8l3.2-0.6     c0.4,0.1,0.9,0.3,1.7,0.6c0.6,0.3,1.1,0.6,1.5,0.9c-0.6,0.3-1.6,0.8-3,1.4c-1.3,0.5-2.3,1-2.9,1.3c0.3,1.8,0.4,3.2,0.4,4.1     c0,1.6-0.4,2.8-1.3,3.6c-0.5,0.4-1.1,0.6-1.9,0.8c-0.9,0.2-1.6,0.3-2.1,0.4c-2.2-0.7-3.6-1.7-4.2-3c-1.5,1.6-2.9,2.6-4.3,3     l0.7,3.6c1.1,0.6,2.4,0.7,4,0.4c0.9-0.2,2.3-0.6,4-1.2c0.1,0,0.4-0.1,0.8-0.1c0.3-0.1,0.6-0.1,0.8,0c0.1,0.1,0,0.3-0.2,0.4     c-0.2,0.2-0.4,0.3-0.4,0.5c-2,2.9-5.5,4-10.6,3.4c-0.5,0-1-0.6-1.8-1.8c-0.5-0.9-1.1-1-1.9-0.3c-0.5,0.1-1.1,0.1-1.9-0.2     c-1-0.3-1.6-0.5-2.1-0.5l-2.7-1l-0.9-1.4c-1.3-2.3-2.5-4.7-3.8-7.3c0.1-0.7,0-1.9-0.2-3.5c0-1.4,0.2-2.5,0.7-3.3     c0.7-1.5,1.5-2.8,2.3-3.7h-59c-1.1,1.4-1.8,3-2.3,4.8c-0.5,1.8-0.6,3.6-0.3,5.4c0.6,2,1.5,3.4,2.8,4.3c-0.1,1.2,0.1,2.3,0.5,3.1     c0.6,1.4,1.6,2.6,2.9,3.6c1.9,1.3,4.1,1.7,6.6,1.2c1.3,1.4,2.9,2.3,4.9,2.6c1.9,0.4,3.7,0.3,5.5-0.3c1-0.4,1.8-0.9,2.5-1.3     c0.7,1.4,1.4,3.3,2.1,5.9c0.8,3,1.4,5,1.8,6c0.1,0.5,0.3,0.9,0.6,1.4c0.3,0.6,1,2.3,2.1,5c0.9,2.1,1.6,3.8,2.3,5     c-3.1,8.6-5.3,16.3-6.5,23.1c0.1,0.4,0.3,0.9,0.6,1.3c0,0,0.4,0.3,1,0.9C96,3.9,96.5,5.5,97,7.3c-0.3,0-0.6-0.2-1.1-0.5     c-0.5-0.3-0.9-0.5-1.2-0.5c0-0.1-0.3-0.4-0.8-1c-0.3-0.4-0.6-0.8-0.7-1.1c-0.2,0.1-0.4,0.6-0.6,1.5c-0.2,1.5-0.4,2.6-0.5,3.4     c-0.2,1.4,0.1,2.4,0.9,3l2,1.6c0,1.1,0.1,2.6,0.4,4.6H95c-0.8-0.6-1.4-1.1-1.8-1.4c-0.7-0.6-1.1-1.2-1.3-1.8h-0.1l-0.1,6.9     c0.1,0.1,0.5,0.3,1.1,0.7c0.5,0.3,0.8,0.6,1.1,0.8c-0.3,8.4,0.4,15.6,2.3,21.7c0.3,0.7,0.7,1.4,1.4,2.3c1,1.4,1.5,2.1,1.5,2.1     c0,1.3,0.1,2.2,0.1,2.9c0.1,1.1,0.2,2,0.4,2.8c0.4,0.2,1,0.7,1.8,1.4c0.8,0.7,1.5,1.2,1.9,1.5c-0.2,0.2-0.6,0.3-1.1,0.4     c-0.5,0-0.9,0.1-1.2,0.1c0.8,2.3,2.7,4.9,5.7,7.7c1.5,1.2,2.6,1.9,3.2,2.1c0.3,0,0.5-0.2,0.8-0.5c0.6,0,1.7-0.3,3.4-0.6     c1.4-0.3,2.5-0.4,3.4-0.4c-1,1.6-2.3,2.5-3.6,2.5l0.3,0.1c2.3,1,4.2,1.6,5.8,1.9c0.1-0.7,0.6-1.5,1.4-2.4     c0.9-1.1,1.4-1.9,1.6-2.4l1.3-1.1c0,1.6,0,2.8,0,3.6c-0.1,1.4-0.6,2.5-1.5,3.1c-0.1,0.4,0.1,0.4,0.6,0.3c2.1-0.9,4.6-2.2,7.4-3.8     c2.4,1.2,3.9,1.9,4.5,2.1c-0.2-0.7-0.5-1.9-0.9-3.4c-0.4-1.4-0.6-2.7-0.6-3.7c0.4,0.3,0.9,0.8,1.5,1.5c0.7,0.9,1.1,1.5,1.4,1.8     c0,0.6,0.2,1.3,0.7,2.1c0.7,1.1,1,1.7,1.1,1.9c2.7,0.8,4.8,0.8,6.4,0c-0.8-0.1-1.3-0.5-1.4-1.1c-0.1-0.3-0.1-0.9-0.1-1.8l0.2-0.1     c2.1,0.4,3.5,1.1,4.4,1.9c1.9-0.3,3.4-0.9,4.5-1.6c-1.1-0.5-1.8-0.9-2.1-1c-0.8-0.4-1.3-0.9-1.8-1.5c2.3,0.1,4.4,0.2,6.3,0.5     l0.9,0.5c2.3-1.4,4.2-3.5,5.7-6.4c0.6-1.2,1.7-3.8,3.2-7.8c-0.2,0-0.6,0.2-1.1,0.4c-0.5,0.2-0.9,0.4-1.2,0.4     c0.1-0.3,0.3-0.9,0.4-1.7c0.2-0.6,0.6-1,1.2-1.1c0.7-0.1,1.3-0.4,1.8-1c0.3-0.4,0.6-1,1.1-1.8l3.9-3.1c1.6-1.2,2.6-2.5,3.2-3.8     c1-1.6,1.8-4,2.5-7c0.8-3.9,1.4-6.3,1.7-7.2c-0.3,0.4-0.9,0.7-1.9,1c-1.1,0.3-1.8,0.6-2.2,0.9c0.2-1.7,1-3,2.3-3.9     c0.1-0.1,1.3-0.6,3.5-1.5c0.9-1.6,1.6-4.1,2.3-7.5c-1.4,0.8-2.4,1.3-3,1.5l-0.1-0.2c0.1-1,0.4-2,1.1-2.9c0.7-0.8,1.5-1.5,2.4-2     l0.2-5.2c3.9-3.1,7.9-4.9,11.8-5.4c0.9-0.1,1.8-0.1,2.5-0.1c0.6,0,1.5,0.1,2.6,0.4c3.6,0.3,6.8,1.4,9.6,3.1     c-0.3,2.5,0.5,4.5,2.4,6.1c2.2,2.4,5.5,3,10.1,1.8c4.9-1.9,9.4-5.5,13.4-11c2.2-3.1,4.6-7.3,7.1-12.6c3-7.1,4.7-14.7,5.1-22.9     l0-0.7c0.2-5.6-0.2-11.3-1.3-16.9l-0.6-2.8c0-0.3,0.1-0.5,0.4-0.7c0.2-0.1,0.4-0.2,0.8-0.3c3.1-0.9,6.2-0.9,9.3-0.2     c2.9,0.7,5.7,2,8.3,4c1.7,1.3,3.1,2.8,4.4,4.3c2.8,3,5.3,7.4,7.6,13c1.8,5.5,2.6,11.5,2.5,17.9c-0.2,6.1-1.2,12-3.1,17.6     l-0.6,1.8c-2.3,6.1-5.8,11.9-10.5,17.3c-4.9,5.7-10.3,9.9-16.1,12.6c-1.5,0.3-3.9,0.2-7.1-0.3c-3.1-0.5-5.5-0.5-7.3-0.1     c-4.1,1.2-7.3,3.1-9.4,5.7l0.1,0.3c2.1-0.3,4-0.8,5.6-1.4c0,0.3-0.1,0.7-0.4,1.1c-0.3,0.6-0.5,1-0.5,1.2c2.6,0.6,4.8,1,6.4,1.1     c-0.5,1-1.4,1.6-2.9,1.8c-1.9,0.2-3,0.4-3.4,0.7c-0.5,0.1-0.8,0.1-1.1,0.1c-0.4,0-0.8,0-1-0.1c0-0.1,0.2-0.5,0.4-1.2     c0.2-0.5,0.3-0.9,0.3-1.3c-0.4-0.1-0.9,0-1.5,0.2c-0.8,0.3-1.3,0.4-1.6,0.4c-0.5,0-0.9,0.1-1.1,0.1c-0.5,0-0.8-0.1-1-0.3     c-1.2,2-2.1,3.6-2.7,4.6c-1.1,1.9-2.4,3.1-3.9,3.8l0.1,0.4c2,0.5,5,1.4,8.9,2.8c3.5,1,6.6,1.4,9.4,1.1c1-0.2,1.7-0.4,2.2-0.6     l-1.8-1.6c2-1.8,3.9-2.7,5.8-2.7l0.1,0.2c-0.1,0.7-0.6,1.7-1.4,3.1c0.9-0.1,1.9-0.6,3-1.5c0.6-0.5,1.5-1.3,2.5-2.4     c1.6-2.8,3.6-5.5,6-8C253.1,37.6,255.7,35.4,258.5,33.8z"/>
		</g>
	</g>
</symbol>
<use xlink:href="#Symbol_3" width="571.3" height="145.2" id="LOGO_1_" x="-285.6" y="-72.6" transform="matrix(0.2204 0 0 -0.2204 62.9572 16.0023)" overflow="visible"/>
<g>
</g>
<g>
</g>
<g>
</g>
<g>
</g>
<g>
</g>
<g>
</g>
<g>
</g>
<g>
</g>
<g>
</g>
<g>
</g>
<g>
</g>
<g>
</g>
<g>
</g>
<g>
</g>
<g>
</g>
<g>
</g>
<g>
</g>
<g>
</g>
</svg>